<svg width="17" height="24" viewBox="0 0 17 24" fill="none" xmlns="http://www.w3.org/2000/svg">
<g clip-path="url(#clip0)">
<path d="M4.0015 23.9999C6.20948 23.9999 8.00147 22.208 8.00147 20V16H4.0015C1.79351 16 0.00152588 17.792 0.00152588 20C0.00152588 22.208 1.79351 23.9999 4.0015 23.9999Z" fill="white"/>
<path d="M0.00152588 12C0.00152588 9.79199 1.79351 8 4.0015 8H8.00147V15.9999H4.0015C1.79351 15.9999 0.00152588 14.208 0.00152588 12Z" fill="white"/>
<path d="M0.00152588 4C0.00152588 1.792 1.79351 0 4.0015 0H8.00147V8H4.0015C1.79351 8 0.00152588 6.208 0.00152588 4Z" fill="white"/>
<path d="M8.00159 0H12.0016C14.2096 0 16.0016 1.792 16.0016 4C16.0016 6.208 14.2096 8 12.0016 8H8.00159V0Z" fill="white"/>
<path d="M16.0016 12C16.0016 14.208 14.2096 15.9999 12.0016 15.9999C9.7936 15.9999 8.00159 14.208 8.00159 12C8.00159 9.79199 9.7936 8 12.0016 8C14.2096 8 16.0016 9.79199 16.0016 12Z" fill="white"/>
</g>
<defs>
<clipPath id="clip0">
<rect width="16.0032" height="24" fill="white"/>
</clipPath>
</defs>
</svg>
