<svg width="34" height="24" viewBox="0 0 34 24" fill="none" xmlns="http://www.w3.org/2000/svg">
<g clip-path="url(#clip0)">
<path d="M8.40933 0C7.93333 0 7.45308 0.128111 6.97425 0.364623C6.49258 0.602777 6.01658 0.932909 5.54767 1.3583C5.05001 1.80944 4.58994 2.31369 4.1735 2.86442C3.73008 3.44585 3.30933 4.08805 2.91692 4.77623C2.52592 5.46606 2.16183 6.20023 1.81192 6.94426H1.8105V6.9459C1.47192 7.72277 1.17583 8.52265 0.918 9.33566C0.663 10.1503 0.459 10.9666 0.2975 11.7944C0.141667 12.6156 0.0453333 13.4155 0.0141667 14.2006C0.0056268 14.2498 0.000885856 14.2998 0 14.35L0 14.5061C0 14.9347 0.0538333 15.3766 0.10625 15.7806V15.7839L0.107667 15.7872C0.204 16.2175 0.355583 16.615 0.546833 16.9648C0.742946 17.3102 1.00279 17.6008 1.30758 17.8156C1.615 18.0423 1.97908 18.1556 2.40692 18.1556C2.7795 18.1556 3.16625 18.057 3.56433 17.8517C3.95958 17.6464 4.35342 17.3787 4.74583 17.065C5.1255 16.7496 5.50517 16.3883 5.87067 15.981C6.16392 15.6656 6.43167 15.3371 6.69658 15.0119L6.41892 16.0106C6.2985 16.4918 6.16392 16.9566 6.05483 17.4116C5.93442 17.8616 5.8395 18.2656 5.75875 18.6237C5.678 18.9784 5.62275 19.2182 5.62275 19.3726V19.7258C5.62275 20.1216 5.65817 20.4008 5.77008 20.5765C5.82575 20.6589 5.89764 20.7245 5.97973 20.768C6.06182 20.8114 6.15171 20.8314 6.24183 20.8262C6.37843 20.8239 6.51049 20.769 6.61725 20.6702C6.732 20.5716 6.82975 20.4451 6.9275 20.3023V20.299L6.93033 20.2973C7.01108 20.1544 7.09325 20.0017 7.16267 19.8407C7.2335 19.6748 7.27317 19.5287 7.31425 19.3989V19.3973L7.40917 19.0031L7.61175 18.1901L7.88092 17.1028C7.98858 16.6971 8.08208 16.2898 8.2025 15.8759L8.52125 14.644C8.62325 14.2433 8.71958 13.8803 8.80883 13.5584C8.89808 13.2299 8.97317 12.9638 9.0355 12.7487C9.06383 12.6419 9.09217 12.5581 9.112 12.4957L9.13183 12.4432L9.1885 12.4727L9.214 12.3939C9.32167 12.0358 9.42792 11.6926 9.53558 11.3657C9.64325 11.0372 9.75092 10.7087 9.83308 10.3852C10.0429 9.70546 10.1484 8.98836 10.1447 8.26642C10.1462 8.12266 10.1221 7.98008 10.0739 7.8476C10.0377 7.73349 9.97732 7.63181 9.89825 7.55196C9.82652 7.47842 9.74266 7.42255 9.65175 7.38772C9.56477 7.35521 9.47397 7.33859 9.38258 7.33844C9.18972 7.34176 9.00254 7.41467 8.84708 7.54703C8.66433 7.68828 8.52833 7.92315 8.42633 8.24015V8.24179L7.64717 11.1391C7.5164 11.4329 7.36626 11.7146 7.19808 11.9816V11.9833C6.50995 13.107 5.69522 14.119 4.77558 14.9922C4.51259 15.2466 4.22777 15.4689 3.92558 15.6558C3.71028 15.8026 3.46686 15.885 3.21725 15.8956C3.05734 15.9012 2.90083 15.8413 2.77525 15.7264C2.64517 15.6093 2.54522 15.4531 2.48625 15.2747C2.41507 15.0708 2.36651 14.8572 2.34175 14.6391C2.31528 14.4093 2.30203 14.1778 2.30208 13.946C2.30208 13.2677 2.39558 12.5105 2.58258 11.6564C2.76958 10.8024 3.02458 9.94829 3.34617 9.06301C3.66775 8.17609 4.04317 7.32202 4.45967 6.48273C4.87475 5.64344 5.31675 4.89777 5.7715 4.24572C6.22483 3.59531 6.67817 3.08615 7.14567 2.6854C7.60892 2.28464 8.024 2.09083 8.4235 2.09083C8.67348 2.08657 8.91879 2.16955 9.12758 2.32899C9.34292 2.48995 9.53842 2.76095 9.72258 3.14364V3.142C9.91242 3.56739 10.1037 3.89752 10.268 4.13732C10.438 4.38368 10.6349 4.51015 10.846 4.51015C10.9606 4.51146 11.0737 4.48116 11.1762 4.42176C11.2787 4.36236 11.3675 4.27556 11.4353 4.16852C11.5982 3.94187 11.6762 3.63145 11.6762 3.25533C11.6762 3.09765 11.662 2.92684 11.6337 2.75109C11.6015 2.55413 11.5339 2.36722 11.4353 2.20252C10.9905 1.43057 10.5131 0.877066 10.0045 0.520656H10.0017C9.52018 0.184875 8.96978 0.00506767 8.40792 0H8.40933ZM23.9374 1.40429C23.732 1.4079 23.5313 1.47601 23.3566 1.60138H23.3552L23.3537 1.60303C23.1419 1.77611 22.984 2.02379 22.9032 2.30928L20.2272 10.124L19.6364 11.8404C19.4197 12.4645 19.2185 13.0886 19.0032 13.7259C18.9044 14.0215 18.8211 14.3237 18.7538 14.6309C18.6359 14.7533 18.5145 14.8711 18.3897 14.984C18.0965 15.2468 17.8188 15.4455 17.5553 15.5835H17.5525C17.351 15.7123 17.1264 15.7848 16.8966 15.7954C16.7804 15.7954 16.7025 15.7625 16.6529 15.7083C16.6033 15.6541 16.5736 15.5704 16.5736 15.4357C16.5736 15.1318 16.6132 14.7951 16.6926 14.4256C16.7733 14.0643 16.8796 13.6848 17 13.3038C17.1155 12.9198 17.245 12.5417 17.3882 12.1705L17.7792 11.1128C17.901 10.7843 17.9959 10.4854 18.0767 10.2357C18.1486 10.0391 18.1912 9.82969 18.2027 9.61651C18.2058 9.35783 18.1345 9.10534 18.0002 8.89877C17.9361 8.79952 17.8526 8.71943 17.7565 8.66515C17.6604 8.61087 17.5545 8.58398 17.4477 8.5867C17.3448 8.58394 17.2428 8.60909 17.1499 8.66014C17.0569 8.71118 16.9755 8.78671 16.9122 8.8807C16.7607 9.08642 16.6391 9.31942 16.5523 9.57052C16.439 9.85606 16.3438 10.1508 16.2676 10.4525C16.1882 10.7646 16.082 11.0569 15.9743 11.3312C15.8142 11.7418 15.6258 12.1919 15.385 12.6879C15.1494 13.1758 14.8818 13.642 14.5846 14.0823C14.2913 14.5094 13.9726 14.8691 13.6283 15.1565C13.3226 15.4261 12.9499 15.5741 12.5658 15.5786C12.4482 15.5786 12.3703 15.5293 12.3292 15.434C12.2787 15.3198 12.2534 15.1929 12.2556 15.0645C12.2697 14.7294 12.3207 14.3763 12.4142 14.0084C12.5077 13.6438 12.614 13.2808 12.7344 12.9244C12.8548 12.5795 12.9894 12.228 13.1353 11.8979C13.2841 11.5677 13.4187 11.2557 13.5518 10.9781V10.9765L13.9032 10.2045C13.9791 10.03 14.0431 9.84873 14.0944 9.6625L14.0958 9.65922V9.65757C14.11 9.59188 14.1256 9.50975 14.1256 9.41942C14.1276 9.29644 14.1012 9.17507 14.0491 9.06794V9.06629L14.0477 9.06465C13.9952 8.9659 13.9262 8.8804 13.8447 8.81325C13.7631 8.74609 13.6708 8.69865 13.5731 8.67375C13.4327 8.62274 13.2838 8.61148 13.1388 8.64091C12.9939 8.67035 12.8572 8.73962 12.7401 8.84292C12.5531 8.99238 12.4128 9.22397 12.2882 9.5426C11.8784 10.5183 11.505 11.514 11.169 12.5269C10.8998 13.3564 10.7114 14.0281 10.5768 14.5455C10.4745 14.9213 10.3973 15.3056 10.3459 15.6952V15.6968L10.3176 16.0762V16.0795C10.3176 16.431 10.3587 16.7365 10.4451 16.9829V16.9862C10.5414 17.2276 10.6547 17.4231 10.7978 17.5725C10.9447 17.7213 11.1192 17.8286 11.3078 17.8862C11.4948 17.9519 11.6903 17.9831 11.8887 17.9831C12.3292 17.9831 12.7358 17.8879 13.1084 17.7285C13.481 17.5692 13.8182 17.3475 14.1199 17.0781C14.4149 16.8149 14.6825 16.5128 14.9175 16.1781C15.0875 15.9481 15.215 15.71 15.3425 15.4768C15.2858 15.8381 15.232 16.1945 15.232 16.4852C15.232 17.0272 15.3212 17.4214 15.5182 17.6628C15.6135 17.7783 15.7288 17.8693 15.8564 17.9298C15.9841 17.9904 16.1212 18.0192 16.2591 18.0143C16.5537 18.0143 16.881 17.9207 17.2422 17.7351C17.6007 17.5495 17.9647 17.3048 18.3331 17.0026C18.4252 16.9287 18.513 16.8498 18.6022 16.771L18.6093 16.8301C18.6478 17.0358 18.7199 17.2309 18.8218 17.405H18.8232L18.8247 17.4083C18.938 17.5709 19.0655 17.7039 19.2369 17.8025C19.4364 17.9094 19.6548 17.9606 19.8744 17.9519C20.259 17.9448 20.6384 17.8471 20.9893 17.6645H20.9922C21.3718 17.4592 21.7529 17.2062 22.1326 16.8761C22.5356 16.5218 22.9197 16.1395 23.2829 15.7313L23.2971 15.7166C23.2319 15.8907 23.1696 16.0648 23.1016 16.2405C22.7913 17.0354 22.4754 17.8369 22.1467 18.6565C21.8167 19.4777 21.4866 20.2891 21.1777 21.1005L21.1763 21.1054L21.1749 21.1087C21.1308 21.263 21.0816 21.4153 21.0276 21.5653C20.9766 21.7164 20.9072 21.8741 20.8647 22.0547V22.0564C20.8122 22.2206 20.7584 22.3816 20.7301 22.559C20.6876 22.7396 20.6734 22.9154 20.6734 23.0763C20.6734 23.418 20.757 23.6791 20.9171 23.8105C21.0831 23.941 21.2805 24.0071 21.4809 23.9994C21.6537 23.9994 21.8124 23.9501 21.9555 23.868V23.8664H21.9569C22.099 23.7731 22.2252 23.6507 22.3295 23.505C22.4372 23.3572 22.5278 23.1897 22.61 22.9992C22.6914 22.8037 22.7642 22.6036 22.8282 22.3997L22.831 22.3931V22.3865C22.8423 22.3257 22.8834 22.1878 22.95 21.9858L23.1795 21.2697L23.4487 20.4287L23.7306 19.5714L23.9714 18.8569C24.0394 18.6532 24.0805 18.512 24.106 18.4381V18.4364C24.1329 18.374 24.174 18.2804 24.2264 18.126L24.4148 17.6119L24.6429 17.0042L24.8866 16.3801L25.0877 15.8184L25.2337 15.4472L25.2351 15.4455C25.3555 15.1663 25.5014 14.8576 25.6629 14.5159V14.5143C25.8372 14.1743 26.0242 13.8491 26.2239 13.5091V13.5075C26.4392 13.179 26.6517 12.8554 26.8798 12.5466C27.1079 12.2395 27.3473 11.9767 27.5882 11.7287C27.8332 11.4988 28.0783 11.2984 28.3262 11.1621C28.545 11.0304 28.7868 10.9584 29.0332 10.9518C29.155 10.9518 29.2357 10.9814 29.2853 11.0159C29.305 11.0376 29.3205 11.0639 29.3308 11.093C29.3411 11.1222 29.3458 11.1536 29.3448 11.185C29.3448 11.3164 29.2839 11.525 29.1408 11.7648V11.7665C28.9935 12.0293 28.8207 12.3085 28.6067 12.6189C28.3772 12.931 28.1492 13.2578 27.8942 13.5994C27.6392 13.9444 27.3955 14.2876 27.166 14.6309C26.9548 14.9474 26.7599 15.2781 26.5823 15.6213V15.6229C26.4391 15.8893 26.3406 16.1847 26.2919 16.4934V16.5049C26.2906 16.5171 26.2887 16.5292 26.2862 16.5411C26.282 16.5575 26.2777 16.5641 26.2777 16.5985V16.6922C26.2777 17.1143 26.4081 17.4559 26.6659 17.6875C26.9252 17.9371 27.2907 18.0488 27.7426 18.0488C28.237 18.0488 28.6917 17.9371 29.1167 17.7138C29.5389 17.4937 29.9738 17.1948 30.4201 16.8006H30.4215C30.8677 16.4129 31.3282 15.9514 31.8254 15.416C32.3085 14.8822 32.8723 14.2909 33.5027 13.6421C33.6681 13.4906 33.7961 13.2912 33.8739 13.064C33.9575 12.8373 34 12.6123 34 12.3906C34.003 12.2044 33.9628 12.0206 33.8838 11.8584C33.8501 11.7845 33.7995 11.7227 33.7375 11.6799C33.6756 11.637 33.6046 11.6147 33.5325 11.6154C33.4514 11.6177 33.3718 11.6419 33.3002 11.686C33.2251 11.7287 33.1457 11.7845 33.0593 11.8519C32.912 11.9061 33.0834 11.9554 33.1018 12.0293C32.3397 12.8193 31.6795 13.4861 31.1567 14.0101C30.6184 14.5553 30.1665 14.9758 29.8166 15.3043C29.5574 15.5474 29.2858 15.7723 29.0034 15.9777C28.8164 16.1075 28.6733 16.1699 28.594 16.1699C28.4835 16.1699 28.407 16.137 28.373 16.0992C28.3526 16.0763 28.3367 16.0487 28.3262 16.0181C28.3157 15.9875 28.3109 15.9547 28.3121 15.9219C28.3217 15.8775 28.3386 15.8357 28.3617 15.7987C28.4124 15.7116 28.4678 15.6282 28.5274 15.549L29.0912 14.7853C29.3207 14.488 29.5502 14.1595 29.8052 13.7998C30.0602 13.4385 30.3011 13.0656 30.5164 12.6797C30.7431 12.3019 30.9202 11.9126 31.0689 11.53C31.212 11.1473 31.2899 10.7826 31.2899 10.4361C31.2944 10.1915 31.2426 9.94999 31.1397 9.73641C31.0424 9.54016 30.9083 9.37177 30.7473 9.24368C30.5915 9.11228 30.4102 9.01374 30.2161 8.9464H30.2147C29.7249 8.78771 29.203 8.83006 28.7371 9.06629C28.438 9.21083 28.1539 9.39373 27.8899 9.61158C27.6098 9.838 27.3425 10.0849 27.0895 10.3507C26.9052 10.552 26.7257 10.759 26.5512 10.9715L26.6022 10.6825C26.6234 10.5626 26.6376 10.4509 26.6503 10.3425V10.3408C26.6645 10.2291 26.6687 10.1503 26.6687 10.0961C26.6795 9.87288 26.6155 9.65345 26.4902 9.48348V9.48183H26.4874C26.3642 9.33401 26.1729 9.26996 25.9207 9.26996C25.7479 9.26996 25.5807 9.38493 25.4391 9.58202C25.2929 9.79377 25.1679 10.0241 25.0665 10.2686C24.9572 10.5243 24.8616 10.7876 24.7803 11.0569L24.5919 11.6778V11.6794C24.5267 11.9406 24.4545 12.2066 24.3794 12.476C24.3596 12.4822 24.3402 12.4899 24.3213 12.499C24.2476 12.5283 24.1814 12.5786 24.1287 12.6452L24.1329 12.6403C23.9657 12.8275 23.7773 13.0459 23.5677 13.2792C23.3594 13.5124 23.1384 13.7456 22.9103 13.9788C22.6808 14.1973 22.4485 14.4305 22.2162 14.6473C21.9867 14.8608 21.7628 15.0497 21.5489 15.214C21.3364 15.3799 21.1381 15.5096 20.9553 15.6098C20.8197 15.6928 20.6706 15.7421 20.5176 15.7543C20.4326 15.7543 20.3972 15.7313 20.3759 15.6853H20.3745C20.3407 15.6064 20.3251 15.5187 20.3292 15.4308C20.3292 15.2452 20.3575 15.0317 20.4198 14.7902C20.4793 14.5504 20.5417 14.3402 20.604 14.1579L20.6437 14.1086L21.1735 12.545C21.3747 11.9455 21.59 11.3197 21.8322 10.6529L22.559 8.59327C22.7998 7.89195 23.0435 7.21362 23.2716 6.56649L23.9445 4.75652C24.1457 4.20466 24.3213 3.73985 24.4687 3.36373L24.4672 3.36701C24.5508 3.17485 24.6047 2.99418 24.6585 2.84143V2.83814C24.7071 2.68152 24.7334 2.51676 24.7364 2.35034C24.7364 2.02842 24.65 1.77548 24.4814 1.62274C24.3275 1.47877 24.1351 1.40153 23.9374 1.40429V1.40429Z" fill="white"/>
</g>
<defs>
<clipPath id="clip0">
<rect width="34" height="24" fill="white"/>
</clipPath>
</defs>
</svg>
