<svg width="24" height="24" viewBox="0 0 24 24" fill="none" xmlns="http://www.w3.org/2000/svg">
<path d="M0 0V24H24V0H0ZM7.025 4H8.658C9.877 4 10.298 4.029 10.326 4.113C10.345 4.179 10.354 5.482 10.354 7.01L10.346 9.793L10.822 9.371C11.479 8.79 12.034 8.584 13.084 8.547C13.778 8.528 14.057 8.556 14.544 8.725C15.604 9.081 16.354 9.812 16.748 10.891C16.898 11.312 16.918 11.754 16.945 15.176L16.975 19H13.637V15.879C13.637 12.804 13.627 12.766 13.42 12.391C13.13 11.894 12.811 11.669 12.314 11.613C11.461 11.52 10.871 11.81 10.534 12.503C10.374 12.823 10.355 13.159 10.346 15.859C10.336 17.509 10.316 18.889 10.316 18.926C10.308 18.973 9.566 19 8.666 19H7.026V11.5L7.025 4Z" fill="white"/>
</svg>
