<svg width="22" height="24" viewBox="0 0 22 24" fill="none" xmlns="http://www.w3.org/2000/svg">
<path d="M0 0L2.00213 21.6L10.9867 24L19.9948 21.597L22 0H0.00155936H0ZM18.278 20.223L11.0366 22.1535V22.164L11.0179 22.158L10.9992 22.164V22.1535L3.75788 20.223L2.04579 1.767H19.9901L18.278 20.223V20.223ZM14.3798 12.426L14.0617 15.861L10.9867 16.659L7.91963 15.864L7.72316 13.749H4.95854L5.34368 17.91L10.9977 19.4145L16.6345 17.91L17.3907 9.777H7.3536L7.10256 7.0635H17.6402L17.8866 4.4145H4.09157L4.83535 12.426H14.3798Z" fill="white"/>
</svg>
