<svg width="24" height="24" viewBox="0 0 24 24" fill="none" xmlns="http://www.w3.org/2000/svg">
<g clip-path="url(#clip0)">
<path d="M1.52502 5.87001C-0.600979 8.92401 -0.336979 12.896 1.28802 16.139C1.32502 16.218 1.36602 16.293 1.40602 16.368C1.42902 16.42 1.45502 16.468 1.48302 16.518C1.49602 16.545 1.51402 16.574 1.53002 16.6C1.55602 16.652 1.58402 16.702 1.61102 16.752L1.76802 17.018C1.79802 17.067 1.82502 17.115 1.85802 17.164C1.91402 17.258 1.97802 17.351 2.03602 17.445C2.06202 17.485 2.08602 17.523 2.11502 17.562C2.21199 17.7147 2.31542 17.8631 2.42502 18.007C2.50302 18.114 2.58102 18.218 2.66502 18.322C2.69202 18.36 2.72302 18.398 2.75102 18.437L2.97102 18.706C2.99902 18.736 3.02602 18.773 3.05502 18.805C3.15302 18.923 3.25702 19.038 3.36102 19.155L3.36602 19.161C3.493 19.3212 3.63534 19.4686 3.79102 19.601C3.87102 19.684 3.95102 19.766 4.03602 19.846L4.13702 19.943C4.24802 20.048 4.36002 20.152 4.47702 20.252C4.47902 20.252 4.48002 20.254 4.48202 20.255L4.53902 20.305C4.64102 20.394 4.74402 20.483 4.84902 20.565L4.97402 20.67C5.05902 20.738 5.14802 20.803 5.23402 20.87L5.37102 20.975C5.46402 21.045 5.56302 21.114 5.65802 21.182C5.69302 21.207 5.72802 21.232 5.76402 21.255L5.79402 21.278L6.07402 21.463L6.19402 21.543C6.34202 21.637 6.48802 21.727 6.63402 21.815C6.67502 21.835 6.71802 21.859 6.75702 21.883C6.86502 21.945 6.97702 22.008 7.08602 22.066C7.14602 22.1 7.20802 22.129 7.27002 22.16C7.34502 22.202 7.42302 22.243 7.50402 22.285C7.52336 22.2909 7.54211 22.2986 7.56002 22.308C7.59302 22.323 7.62402 22.339 7.65602 22.355C7.77602 22.415 7.90102 22.473 8.03102 22.53C8.05502 22.54 8.08102 22.55 8.10702 22.564C8.25102 22.627 8.39602 22.687 8.54502 22.746C8.57902 22.756 8.61502 22.773 8.65002 22.786C8.78502 22.837 8.92402 22.889 9.06102 22.938L9.11102 22.956C9.26502 23.008 9.41602 23.058 9.57102 23.106C9.60702 23.116 9.64402 23.129 9.68202 23.139C9.84202 23.187 9.99602 23.244 10.156 23.276C20.429 25.148 23.414 17.099 23.414 17.099C20.906 20.365 16.456 21.226 12.24 20.268C12.084 20.232 11.928 20.182 11.77 20.136C11.5797 20.0795 11.3907 20.0188 11.203 19.954L11.141 19.93C11.005 19.884 10.874 19.833 10.741 19.782C10.7048 19.7674 10.6682 19.754 10.631 19.742C10.483 19.682 10.341 19.621 10.198 19.558C10.167 19.548 10.141 19.534 10.11 19.522C9.98887 19.4664 9.8682 19.4097 9.74802 19.352C9.71201 19.3361 9.67665 19.3187 9.64202 19.3C9.54802 19.256 9.45402 19.205 9.36202 19.157C9.29885 19.1267 9.23649 19.0947 9.17502 19.061C9.06102 19.001 8.94802 18.936 8.83502 18.874C8.80102 18.85 8.76202 18.83 8.72302 18.808C8.57524 18.7204 8.42889 18.6304 8.28402 18.538C8.24383 18.5133 8.20447 18.4873 8.16602 18.46C8.0599 18.3943 7.95585 18.3252 7.85402 18.253C7.81902 18.23 7.78702 18.205 7.75102 18.18C7.65135 18.1112 7.553 18.0405 7.45602 17.968C7.41402 17.934 7.36902 17.902 7.32402 17.868C7.23602 17.798 7.14702 17.733 7.05902 17.66L6.94102 17.565C6.82744 17.474 6.71575 17.3806 6.60602 17.285C6.59468 17.2735 6.5823 17.2632 6.56902 17.254L6.22202 16.938L6.12202 16.844C6.04002 16.76 5.95602 16.68 5.87202 16.598L5.77402 16.498C5.66839 16.3929 5.56536 16.2852 5.46502 16.175L5.45002 16.159C5.34402 16.043 5.24002 15.924 5.13702 15.804C5.11002 15.774 5.08402 15.74 5.05702 15.707L4.83002 15.43C4.71471 15.2818 4.60137 15.1322 4.49002 14.981C2.15202 11.79 1.30602 7.38401 3.17702 3.77101L1.52502 5.87001ZM8.12002 3.29801C6.58002 5.50901 6.66602 8.46701 7.86602 10.806C8.06432 11.1996 8.29092 11.5782 8.54402 11.939C8.77402 12.269 9.02802 12.66 9.33702 12.927C9.44402 13.049 9.56002 13.167 9.68102 13.287L9.77102 13.377C9.88502 13.487 10.003 13.594 10.121 13.702L10.137 13.715C10.2719 13.8327 10.4099 13.9468 10.551 14.057C10.585 14.08 10.614 14.107 10.647 14.13C10.787 14.238 10.929 14.342 11.075 14.446L11.09 14.455C11.152 14.5 11.218 14.541 11.288 14.585C11.316 14.603 11.348 14.627 11.378 14.645C11.484 14.713 11.588 14.777 11.696 14.842C11.713 14.849 11.728 14.858 11.744 14.865C11.834 14.92 11.932 14.973 12.026 15.022C12.059 15.042 12.091 15.057 12.126 15.076C12.192 15.109 12.258 15.144 12.323 15.178L12.355 15.192C12.49 15.259 12.628 15.321 12.763 15.382C12.797 15.396 12.826 15.407 12.855 15.421C12.966 15.469 13.079 15.515 13.191 15.558C13.241 15.575 13.288 15.595 13.335 15.61C13.437 15.648 13.545 15.683 13.645 15.718L13.785 15.763C13.932 15.808 14.08 15.867 14.234 15.893C22.164 17.206 24 11.098 24 11.098C22.347 13.478 19.148 14.611 15.739 13.726C15.5881 13.687 15.4384 13.6437 15.29 13.596C15.242 13.582 15.2 13.567 15.154 13.553C15.05 13.517 14.943 13.483 14.842 13.444L14.698 13.39C14.585 13.345 14.471 13.303 14.362 13.255C14.328 13.24 14.297 13.23 14.271 13.215C14.131 13.152 13.99 13.09 13.853 13.023L13.647 12.916L13.528 12.856C13.4384 12.8084 13.35 12.7584 13.263 12.706C13.2417 12.6955 13.221 12.6839 13.201 12.671C13.095 12.605 12.984 12.541 12.883 12.473C12.849 12.454 12.818 12.431 12.786 12.411L12.578 12.275C12.434 12.175 12.293 12.067 12.15 11.962C12.118 11.933 12.087 11.909 12.056 11.883C10.557 10.705 9.37502 9.09301 8.81402 7.27001C8.22402 5.37301 8.35402 3.24701 9.37402 1.52001L8.12002 3.29801ZM13.666 1.37301C12.757 2.70701 12.67 4.36301 13.296 5.83301C13.961 7.39601 15.32 8.62301 16.904 9.20301C16.969 9.22801 17.032 9.24901 17.1 9.27301L17.188 9.30001C17.28 9.33001 17.373 9.36301 17.468 9.38401C21.849 10.229 23.035 7.13401 23.354 6.68001C22.311 8.17801 20.562 8.53701 18.416 8.01501C18.2412 7.9713 18.0689 7.91789 17.9 7.85501C17.6897 7.78124 17.4834 7.69646 17.282 7.60101C16.9008 7.41661 16.5384 7.19557 16.2 6.94101C14.278 5.48401 13.087 2.70501 14.341 0.44101" fill="white"/>
</g>
<defs>
<clipPath id="clip0">
<rect width="24" height="24" fill="white"/>
</clipPath>
</defs>
</svg>
