<svg width="24" height="24" viewBox="0 0 24 24" fill="none" xmlns="http://www.w3.org/2000/svg">
<path d="M0 0H24V24H0V0ZM22.0333 18.276C21.8587 17.1813 21.1453 16.2613 19.0307 15.4027C18.2947 15.0573 17.4773 14.8187 17.232 14.264C17.1413 13.9333 17.128 13.7547 17.1867 13.5587C17.3373 12.9133 18.1027 12.72 18.7027 12.8987C19.0933 13.0187 19.4533 13.3187 19.6787 13.8C20.712 13.124 20.712 13.124 21.4333 12.6747C21.1627 12.256 21.028 12.0733 20.848 11.8933C20.2173 11.1893 19.3773 10.8293 18.0133 10.86L17.3093 10.9493C16.6333 11.1147 15.988 11.476 15.5987 11.9547C14.4587 13.2453 14.788 15.4947 16.168 16.4267C17.532 17.4467 19.5293 17.6707 19.784 18.6307C20.024 19.8013 18.9147 20.176 17.8173 20.0413C17.008 19.86 16.5573 19.456 16.0627 18.7053L14.2333 19.756C14.4427 20.2347 14.6827 20.4453 15.0427 20.8653C16.7827 22.62 21.1333 22.5307 21.9133 19.86C21.9413 19.7707 22.1533 19.156 21.988 18.2107L22.0333 18.276ZM13.0507 11.0307H10.8027C10.8027 12.968 10.7933 14.8947 10.7933 16.836C10.7933 18.068 10.856 19.1987 10.6547 19.5467C10.3253 20.236 9.47333 20.148 9.088 20.0253C8.692 19.8307 8.49067 19.56 8.25733 19.1707C8.19467 19.0667 8.148 18.976 8.13067 18.976L6.30667 20.1013C6.612 20.732 7.05733 21.2733 7.632 21.6173C8.48667 22.128 9.63467 22.2933 10.8373 22.024C11.6213 21.7973 12.2973 21.332 12.648 20.612C13.16 19.6827 13.0507 18.5413 13.0467 17.2667C13.0573 15.212 13.0467 13.156 13.0467 11.0867L13.0507 11.0307Z" fill="white"/>
</svg>
