<svg width="25" height="24" viewBox="0 0 25 24" fill="none" xmlns="http://www.w3.org/2000/svg">
<path d="M8.75872 6.8446C8.15148 6.8446 7.73932 6.90368 7.52499 6.96413V10.8673C7.78053 10.925 8.0924 10.9442 8.52379 10.9442C10.1134 10.9442 11.0943 10.1405 11.0943 8.78587C11.0929 7.57138 10.2494 6.8446 8.75872 6.8446Z" fill="white"/>
<path d="M23.1499 0.00201416H2.08862C1.27667 0.00201416 0.618591 0.65872 0.618591 1.46793V22.5279C0.618591 23.3384 1.27667 23.9965 2.08862 23.9965H23.1499C23.9605 23.9965 24.6186 23.3384 24.6186 22.5279V1.4693C24.6186 0.65872 23.9605 0.00201416 23.1499 0.00201416ZM12.8377 11.8475C11.8197 12.8092 10.3071 13.2406 8.5444 13.2406C8.1501 13.2406 7.7984 13.2213 7.52362 13.1815V17.9103H4.5602V4.86411C5.48206 4.70887 6.77624 4.59071 8.6021 4.59071C10.4445 4.59071 11.7606 4.94242 12.6413 5.64996C13.4889 6.31766 14.0563 7.41675 14.0563 8.71093C14.0563 10.0051 13.6236 11.1001 12.8377 11.8475ZM17.3041 18.1054C16.0457 18.1054 14.9287 17.8334 14.202 17.4391L14.7309 15.3013C15.2804 15.6324 16.4194 16.0254 17.3041 16.0254C18.204 16.0254 18.5777 15.7121 18.5777 15.2203C18.5777 14.7312 18.2837 14.4963 17.1668 14.1226C15.1857 13.4562 14.419 12.3764 14.4383 11.2388C14.4383 9.45556 15.9688 8.09818 18.3428 8.09818C19.4611 8.09818 20.4613 8.3551 21.0493 8.64773L20.5204 10.7085C20.089 10.4722 19.266 10.1604 18.4403 10.1604C17.7163 10.1604 17.3055 10.4544 17.3055 10.9448C17.3055 11.3955 17.6751 11.6304 18.8525 12.0439C20.677 12.6704 21.4436 13.5936 21.4615 15.0032C21.4615 16.7906 20.0464 18.1054 17.3041 18.1054Z" fill="white"/>
</svg>
