<svg width="24" height="24" viewBox="0 0 24 24" fill="none" xmlns="http://www.w3.org/2000/svg">
<path fill-rule="evenodd" clip-rule="evenodd" d="M12 0C5.37258 0 0 5.37258 0 12C0 18.6274 5.37258 24 12 24C18.6274 24 24 18.6274 24 12C24 5.37258 18.6274 0 12 0ZM15.8211 17.5403C15.8211 17.5403 15.5065 18.3091 14.6678 17.9422L11.5225 15.5307L9.49547 17.3655C9.49547 17.3655 9.3382 17.4878 9.16346 17.4179C9.16346 17.4179 9.00619 17.4005 8.83145 16.8238C8.63924 16.2297 7.69564 13.1368 7.69564 13.1368L4.56778 12.0883C4.56778 12.0883 4.09598 11.9136 4.04356 11.5466C3.99114 11.1797 4.58525 10.97 4.58525 10.97L17.0093 6.09474C17.0093 6.09474 18.0228 5.64041 18.0403 6.3918L15.8211 17.5403ZM15.6289 8.36637C15.6463 8.10426 15.2095 8.36637 15.2095 8.36637L8.34218 12.7349C8.23733 12.8048 8.20239 12.9271 8.23733 13.0319L9.05861 15.723C9.11104 15.8802 9.3382 15.8627 9.37315 15.688L9.56536 14.0454C9.56536 13.9755 9.60031 13.9231 9.65273 13.8882C10.3167 13.2941 15.2619 8.85565 15.4716 8.64596C15.6988 8.40132 15.6289 8.36637 15.6289 8.36637Z" fill="white"/>
</svg>
